  0
SECTION
  2
HEADER
  9
$ACADVER
  1
AC1009
  9
$FILLMODE
 70
0
  9
$EXTMIN
 10
-6.1408
 20
-21.8127
 30
0.0000
  9
$EXTMAX
 10
213.1680
 20
23.9452
 30
0.0000
  0
ENDSEC
  0
SECTION
  2
TABLES
  0
TABLE
  2
LTYPE
 70
1
  0
LTYPE
  2
CONTINUOUS
 70
64
  3
Solid line
 72
65
 73
0
 40
0
  0
ENDTAB
  0
TABLE
  2
LAYER
 70
255
  0
LAYER
  2
31
 70
64
 62
7
  6
CONTINUOUS
  0
ENDTAB
  0
ENDSEC
  0
SECTION
  2
BLOCKS
  0
BLOCK
  8
0
  2
RECT
 70
64
 10
0.0000
 20
0.0000
 30
0.0000
  3
RECT
  0
SOLID
  8
0
 10
-0.5000
 20
-0.5000
 30
0.0000
 11
0.5000
 21
-0.5000
 31
0.0000
 12
-0.5000
 22
0.5000
 32
0.0000
 13
0.5000
 23
0.5000
 33
0.0000
  0
ENDBLK
  8
0
  0
BLOCK
  8
0
  2
PIE
 70
64
 10
0.0000
 20
0.0000
 30
0.0000
  3
PIE
  0
CIRCLE
  8
0
 10
0.0000
 20
0.0000
 30
0.0000
 40
0.5000
  0
ENDBLK
  8
0
  0
BLOCK
  8
0
  2
OCTAGONP
 70
64
 10
0.0000
 20
0.0000
 30
0.0000
  3
OCTAGONP
  0
POLYLINE
  8
0
 66
1
 10
0.0000
 20
0.0000
 30
0.0000
 40
0.0000
 41
0.0000
 70
1
  0
VERTEX
  8
0
 10
-0.5000
 20
-0.2071
 30
0.0000
  0
VERTEX
  8
0
 10
-0.5000
 20
0.2071
 30
0.0000
  0
VERTEX
  8
0
 10
-0.2071
 20
0.5000
 30
0.0000
  0
VERTEX
  8
0
 10
0.2071
 20
0.5000
 30
0.0000
  0
VERTEX
  8
0
 10
0.5000
 20
0.2071
 30
0.0000
  0
VERTEX
  8
0
 10
0.5000
 20
-0.2071
 30
0.0000
  0
VERTEX
  8
0
 10
0.2071
 20
-0.5000
 30
0.0000
  0
VERTEX
  8
0
 10
-0.2071
 20
-0.5000
 30
0.0000
  0
SEQEND
  8
0
  0
ENDBLK
  8
0
  0
BLOCK
  8
0
  2
SQUAREP
 70
64
 10
0.0000
 20
0.0000
 30
0.0000
  3
SQUAREP
  0
SOLID
  8
0
 10
-0.5000
 20
-0.5000
 30
0.0000
 11
0.5000
 21
-0.5000
 31
0.0000
 12
-0.5000
 22
0.5000
 32
0.0000
 13
0.5000
 23
0.5000
 33
0.0000
  0
ENDBLK
  8
0
  0
BLOCK
  8
0
  2
ROUNDP
 70
64
 10
0.0000
 20
0.0000
 30
0.0000
  3
ROUNDP
  0
CIRCLE
  8
0
 10
0.0000
 20
0.0000
 30
0.0000
 40
0.5000
  0
ENDBLK
  8
0
  0
BLOCK
  8
0
  2
ANNULUSP
 70
64
 10
0.0000
 20
0.0000
 30
0.0000
  3
ANNULUSP
  0
CIRCLE
  8
0
 10
0.0000
 20
0.0000
 30
0.0000
 40
0.5000
  0
ENDBLK
  8
0
  0
BLOCK
  8
0
  2
THERMALP
 70
64
 10
0.0000
 20
0.0000
 30
0.0000
  3
THERMALP
  0
POLYLINE
  8
0
 66
1
 10
0.0000
 20
0.0000
 30
0.0000
 40
0.0000
 41
0.0000
 70
1
  0
VERTEX
  8
0
 10
-0.2379
 20
0.4000
 30
0.0000
  0
VERTEX
  8
0
 10
0.2379
 20
0.4000
 30
0.0000
 42
1.0000
  0
VERTEX
  8
0
 10
0.2379
 20
0.5000
 30
0.0000
  0
VERTEX
  8
0
 10
-0.2379
 20
0.5000
 30
0.0000
 42
1.0000
  0
SEQEND
  8
0
  0
POLYLINE
  8
0
 66
1
 10
0.0000
 20
0.0000
 30
0.0000
 40
0.0000
 41
0.0000
 70
1
  0
VERTEX
  8
0
 10
0.4000
 20
0.2379
 30
0.0000
  0
VERTEX
  8
0
 10
0.4000
 20
-0.2379
 30
0.0000
 42
1.0000
  0
VERTEX
  8
0
 10
0.5000
 20
-0.2379
 30
0.0000
  0
VERTEX
  8
0
 10
0.5000
 20
0.2379
 30
0.0000
 42
1.0000
  0
SEQEND
  8
0
  0
POLYLINE
  8
0
 66
1
 10
0.0000
 20
0.0000
 30
0.0000
 40
0.0000
 41
0.0000
 70
1
  0
VERTEX
  8
0
 10
0.2379
 20
-0.4000
 30
0.0000
  0
VERTEX
  8
0
 10
-0.2379
 20
-0.4000
 30
0.0000
 42
1.0000
  0
VERTEX
  8
0
 10
-0.2379
 20
-0.5000
 30
0.0000
  0
VERTEX
  8
0
 10
0.2379
 20
-0.5000
 30
0.0000
 42
1.0000
  0
SEQEND
  8
0
  0
POLYLINE
  8
0
 66
1
 10
0.0000
 20
0.0000
 30
0.0000
 40
0.0000
 41
0.0000
 70
1
  0
VERTEX
  8
0
 10
-0.4000
 20
-0.2379
 30
0.0000
  0
VERTEX
  8
0
 10
-0.4000
 20
0.2379
 30
0.0000
 42
1.0000
  0
VERTEX
  8
0
 10
-0.5000
 20
0.2379
 30
0.0000
  0
VERTEX
  8
0
 10
-0.5000
 20
-0.2379
 30
0.0000
 42
1.0000
  0
SEQEND
  8
0
  0
ENDBLK
  8
0
  0
BLOCK
  8
0
  2
OCTAGONV
 70
64
 10
0.0000
 20
0.0000
 30
0.0000
  3
OCTAGONV
  0
POLYLINE
  8
0
 66
1
 10
0.0000
 20
0.0000
 30
0.0000
 40
0.0000
 41
0.0000
 70
1
  0
VERTEX
  8
0
 10
-0.5000
 20
-0.2071
 30
0.0000
  0
VERTEX
  8
0
 10
-0.5000
 20
0.2071
 30
0.0000
  0
VERTEX
  8
0
 10
-0.2071
 20
0.5000
 30
0.0000
  0
VERTEX
  8
0
 10
0.2071
 20
0.5000
 30
0.0000
  0
VERTEX
  8
0
 10
0.5000
 20
0.2071
 30
0.0000
  0
VERTEX
  8
0
 10
0.5000
 20
-0.2071
 30
0.0000
  0
VERTEX
  8
0
 10
0.2071
 20
-0.5000
 30
0.0000
  0
VERTEX
  8
0
 10
-0.2071
 20
-0.5000
 30
0.0000
  0
SEQEND
  8
0
  0
ENDBLK
  8
0
  0
BLOCK
  8
0
  2
SQUAREV
 70
64
 10
0.0000
 20
0.0000
 30
0.0000
  3
SQUAREV
  0
SOLID
  8
0
 10
-0.5000
 20
-0.5000
 30
0.0000
 11
0.5000
 21
-0.5000
 31
0.0000
 12
-0.5000
 22
0.5000
 32
0.0000
 13
0.5000
 23
0.5000
 33
0.0000
  0
ENDBLK
  8
0
  0
BLOCK
  8
0
  2
ROUNDV
 70
64
 10
0.0000
 20
0.0000
 30
0.0000
  3
ROUNDV
  0
CIRCLE
  8
0
 10
0.0000
 20
0.0000
 30
0.0000
 40
0.5000
  0
ENDBLK
  8
0
  0
BLOCK
  8
0
  2
ANNULUSV
 70
64
 10
0.0000
 20
0.0000
 30
0.0000
  3
ANNULUSV
  0
CIRCLE
  8
0
 10
0.0000
 20
0.0000
 30
0.0000
 40
0.5000
  0
ENDBLK
  8
0
  0
BLOCK
  8
0
  2
THERMALV
 70
64
 10
0.0000
 20
0.0000
 30
0.0000
  3
THERMALV
  0
POLYLINE
  8
0
 66
1
 10
0.0000
 20
0.0000
 30
0.0000
 40
0.0000
 41
0.0000
 70
1
  0
VERTEX
  8
0
 10
-0.2379
 20
0.4000
 30
0.0000
  0
VERTEX
  8
0
 10
0.2379
 20
0.4000
 30
0.0000
 42
1.0000
  0
VERTEX
  8
0
 10
0.2379
 20
0.5000
 30
0.0000
  0
VERTEX
  8
0
 10
-0.2379
 20
0.5000
 30
0.0000
 42
1.0000
  0
SEQEND
  8
0
  0
POLYLINE
  8
0
 66
1
 10
0.0000
 20
0.0000
 30
0.0000
 40
0.0000
 41
0.0000
 70
1
  0
VERTEX
  8
0
 10
0.4000
 20
0.2379
 30
0.0000
  0
VERTEX
  8
0
 10
0.4000
 20
-0.2379
 30
0.0000
 42
1.0000
  0
VERTEX
  8
0
 10
0.5000
 20
-0.2379
 30
0.0000
  0
VERTEX
  8
0
 10
0.5000
 20
0.2379
 30
0.0000
 42
1.0000
  0
SEQEND
  8
0
  0
POLYLINE
  8
0
 66
1
 10
0.0000
 20
0.0000
 30
0.0000
 40
0.0000
 41
0.0000
 70
1
  0
VERTEX
  8
0
 10
0.2379
 20
-0.4000
 30
0.0000
  0
VERTEX
  8
0
 10
-0.2379
 20
-0.4000
 30
0.0000
 42
1.0000
  0
VERTEX
  8
0
 10
-0.2379
 20
-0.5000
 30
0.0000
  0
VERTEX
  8
0
 10
0.2379
 20
-0.5000
 30
0.0000
 42
1.0000
  0
SEQEND
  8
0
  0
POLYLINE
  8
0
 66
1
 10
0.0000
 20
0.0000
 30
0.0000
 40
0.0000
 41
0.0000
 70
1
  0
VERTEX
  8
0
 10
-0.4000
 20
-0.2379
 30
0.0000
  0
VERTEX
  8
0
 10
-0.4000
 20
0.2379
 30
0.0000
 42
1.0000
  0
VERTEX
  8
0
 10
-0.5000
 20
0.2379
 30
0.0000
  0
VERTEX
  8
0
 10
-0.5000
 20
-0.2379
 30
0.0000
 42
1.0000
  0
SEQEND
  8
0
  0
ENDBLK
  8
0
  0
BLOCK
  8
0
  2
RECT160000X160000R30
 70
64
 10
0.0000
 20
0.0000
 30
0.0000
  3
RECT160000X160000R30
  0
POLYLINE
  8
0
 66
1
 10
0.0000
 20
0.0000
 30
0.0000
 40
0.0000
 41
0.0000
 70
1
  0
VERTEX
  8
0
 10
0.5000
 20
-0.3500
 30
0.0000
  0
VERTEX
  8
0
 10
0.5000
 20
0.3500
 30
0.0000
 42
0.4142
  0
VERTEX
  8
0
 10
0.3500
 20
0.5000
 30
0.0000
  0
VERTEX
  8
0
 10
-0.3500
 20
0.5000
 30
0.0000
 42
0.4142
  0
VERTEX
  8
0
 10
-0.5000
 20
0.3500
 30
0.0000
  0
VERTEX
  8
0
 10
-0.5000
 20
-0.3500
 30
0.0000
 42
0.4142
  0
VERTEX
  8
0
 10
-0.3500
 20
-0.5000
 30
0.0000
  0
VERTEX
  8
0
 10
0.3500
 20
-0.5000
 30
0.0000
 42
0.4142
  0
SEQEND
  8
0
  0
ENDBLK
  8
0
  0
ENDSEC
  0
SECTION
  2
ENTITIES
  0
INSERT
  8
31
  2
RECT
 10
43.6000
 20
5.0000
 30
0.0000
 41
1.6000
 42
1.4000
 43
1.0000
 50
270.0000
  0
INSERT
  8
31
  2
RECT
 10
46.4000
 20
5.0000
 30
0.0000
 41
1.6000
 42
1.4000
 43
1.0000
 50
270.0000
  0
INSERT
  8
31
  2
RECT
 10
41.1500
 20
11.0000
 30
0.0000
 41
1.1000
 42
1.0000
 43
1.0000
 50
0.0000
  0
INSERT
  8
31
  2
RECT
 10
42.8500
 20
11.0000
 30
0.0000
 41
1.1000
 42
1.0000
 43
1.0000
 50
0.0000
  0
INSERT
  8
31
  2
RECT
 10
25.0500
 20
3.1500
 30
0.0000
 41
1.1000
 42
1.0000
 43
1.0000
 50
90.0000
  0
INSERT
  8
31
  2
RECT
 10
25.0500
 20
4.8500
 30
0.0000
 41
1.1000
 42
1.0000
 43
1.0000
 50
90.0000
  0
INSERT
  8
31
  2
RECT
 10
196.9780
 20
4.4930
 30
0.0000
 41
1.1000
 42
1.0000
 43
1.0000
 50
0.0000
  0
INSERT
  8
31
  2
RECT
 10
198.6780
 20
4.4930
 30
0.0000
 41
1.1000
 42
1.0000
 43
1.0000
 50
0.0000
  0
INSERT
  8
31
  2
RECT
 10
191.7320
 20
2.8820
 30
0.0000
 41
1.1000
 42
1.0000
 43
1.0000
 50
270.0000
  0
INSERT
  8
31
  2
RECT
 10
191.7320
 20
1.1820
 30
0.0000
 41
1.1000
 42
1.0000
 43
1.0000
 50
270.0000
  0
INSERT
  8
31
  2
RECT
 10
194.6530
 20
4.3210
 30
0.0000
 41
1.6000
 42
1.4000
 43
1.0000
 50
180.0000
  0
INSERT
  8
31
  2
RECT
 10
194.6530
 20
1.5210
 30
0.0000
 41
1.6000
 42
1.4000
 43
1.0000
 50
180.0000
  0
INSERT
  8
31
  2
RECT
 10
191.2880
 20
4.1570
 30
0.0000
 41
1.0500
 42
1.0800
 43
1.0000
 50
90.0000
  0
INSERT
  8
31
  2
RECT
 10
191.2880
 20
5.9070
 30
0.0000
 41
1.0500
 42
1.0800
 43
1.0000
 50
90.0000
  0
INSERT
  8
31
  2
RECT
 10
25.1000
 20
11.8500
 30
0.0000
 41
1.1000
 42
1.0000
 43
1.0000
 50
270.0000
  0
INSERT
  8
31
  2
RECT
 10
25.1000
 20
10.1500
 30
0.0000
 41
1.1000
 42
1.0000
 43
1.0000
 50
270.0000
  0
INSERT
  8
31
  2
RECT
 10
21.0000
 20
11.8500
 30
0.0000
 41
1.1000
 42
1.0000
 43
1.0000
 50
270.0000
  0
INSERT
  8
31
  2
RECT
 10
21.0000
 20
10.1500
 30
0.0000
 41
1.1000
 42
1.0000
 43
1.0000
 50
270.0000
  0
INSERT
  8
31
  2
RECT
 10
10.1500
 20
1.0000
 30
0.0000
 41
1.1000
 42
1.0000
 43
1.0000
 50
0.0000
  0
INSERT
  8
31
  2
RECT
 10
11.8500
 20
1.0000
 30
0.0000
 41
1.1000
 42
1.0000
 43
1.0000
 50
0.0000
  0
INSERT
  8
31
  2
RECT
 10
1.1500
 20
1.0000
 30
0.0000
 41
1.1000
 42
1.0000
 43
1.0000
 50
0.0000
  0
INSERT
  8
31
  2
RECT
 10
2.8500
 20
1.0000
 30
0.0000
 41
1.1000
 42
1.0000
 43
1.0000
 50
0.0000
  0
INSERT
  8
31
  2
RECT
 10
38.0000
 20
8.1500
 30
0.0000
 41
1.1000
 42
1.0000
 43
1.0000
 50
90.0000
  0
INSERT
  8
31
  2
RECT
 10
38.0000
 20
9.8500
 30
0.0000
 41
1.1000
 42
1.0000
 43
1.0000
 50
90.0000
  0
INSERT
  8
31
  2
RECT
 10
37.1500
 20
1.0000
 30
0.0000
 41
1.1000
 42
1.0000
 43
1.0000
 50
0.0000
  0
INSERT
  8
31
  2
RECT
 10
38.8500
 20
1.0000
 30
0.0000
 41
1.1000
 42
1.0000
 43
1.0000
 50
0.0000
  0
INSERT
  8
31
  2
RECT
 10
44.1500
 20
11.0000
 30
0.0000
 41
1.1000
 42
1.0000
 43
1.0000
 50
0.0000
  0
INSERT
  8
31
  2
RECT
 10
45.8500
 20
11.0000
 30
0.0000
 41
1.1000
 42
1.0000
 43
1.0000
 50
0.0000
  0
INSERT
  8
31
  2
RECT
 10
195.6030
 20
7.5720
 30
0.0000
 41
1.6000
 42
1.4000
 43
1.0000
 50
270.0000
  0
INSERT
  8
31
  2
RECT
 10
198.4030
 20
7.5720
 30
0.0000
 41
1.6000
 42
1.4000
 43
1.0000
 50
270.0000
  0
INSERT
  8
31
  2
RECT
 10
172.8500
 20
14.0000
 30
0.0000
 41
1.1000
 42
1.0000
 43
1.0000
 50
180.0000
  0
INSERT
  8
31
  2
RECT
 10
171.1500
 20
14.0000
 30
0.0000
 41
1.1000
 42
1.0000
 43
1.0000
 50
180.0000
  0
INSERT
  8
31
  2
RECT
 10
186.1050
 20
8.1280
 30
0.0000
 41
1.1000
 42
1.0000
 43
1.0000
 50
180.0000
  0
INSERT
  8
31
  2
RECT
 10
184.4050
 20
8.1280
 30
0.0000
 41
1.1000
 42
1.0000
 43
1.0000
 50
180.0000
  0
INSERT
  8
31
  2
RECT
 10
40.1320
 20
7.5810
 30
0.0000
 41
1.1000
 42
1.0000
 43
1.0000
 50
270.0000
  0
INSERT
  8
31
  2
RECT
 10
40.1320
 20
5.8810
 30
0.0000
 41
1.1000
 42
1.0000
 43
1.0000
 50
270.0000
  0
INSERT
  8
31
  2
RECT
 10
8.0000
 20
1.6000
 30
0.0000
 41
1.6000
 42
1.4000
 43
1.0000
 50
0.0000
  0
INSERT
  8
31
  2
RECT
 10
8.0000
 20
4.4000
 30
0.0000
 41
1.6000
 42
1.4000
 43
1.0000
 50
0.0000
  0
INSERT
  8
31
  2
RECT
 10
184.4050
 20
3.4290
 30
0.0000
 41
1.1000
 42
1.0000
 43
1.0000
 50
0.0000
  0
INSERT
  8
31
  2
RECT
 10
186.1050
 20
3.4290
 30
0.0000
 41
1.1000
 42
1.0000
 43
1.0000
 50
0.0000
  0
INSERT
  8
31
  2
RECT
 10
185.0000
 20
13.8500
 30
0.0000
 41
1.1000
 42
1.0000
 43
1.0000
 50
270.0000
  0
INSERT
  8
31
  2
RECT
 10
185.0000
 20
12.1500
 30
0.0000
 41
1.1000
 42
1.0000
 43
1.0000
 50
270.0000
  0
INSERT
  8
31
  2
RECT
 10
177.0000
 20
13.8500
 30
0.0000
 41
1.1000
 42
1.0000
 43
1.0000
 50
270.0000
  0
INSERT
  8
31
  2
RECT
 10
177.0000
 20
12.1500
 30
0.0000
 41
1.1000
 42
1.0000
 43
1.0000
 50
270.0000
  0
INSERT
  8
31
  2
RECT
 10
23.7500
 20
13.7500
 30
0.0000
 41
1.6000
 42
1.4000
 43
1.0000
 50
90.0000
  0
INSERT
  8
31
  2
RECT
 10
20.9500
 20
13.7500
 30
0.0000
 41
1.6000
 42
1.4000
 43
1.0000
 50
90.0000
  0
INSERT
  8
31
  2
RECT
 10
61.0500
 20
5.0000
 30
0.0000
 41
1.3000
 42
1.5000
 43
1.0000
 50
0.0000
  0
INSERT
  8
31
  2
RECT
 10
62.9500
 20
5.0000
 30
0.0000
 41
1.3000
 42
1.5000
 43
1.0000
 50
0.0000
  0
INSERT
  8
31
  2
RECT
 10
62.9500
 20
7.0000
 30
0.0000
 41
1.3000
 42
1.5000
 43
1.0000
 50
180.0000
  0
INSERT
  8
31
  2
RECT
 10
61.0500
 20
7.0000
 30
0.0000
 41
1.3000
 42
1.5000
 43
1.0000
 50
180.0000
  0
INSERT
  8
31
  2
RECT
 10
61.0500
 20
11.0000
 30
0.0000
 41
1.3000
 42
1.5000
 43
1.0000
 50
0.0000
  0
INSERT
  8
31
  2
RECT
 10
62.9500
 20
11.0000
 30
0.0000
 41
1.3000
 42
1.5000
 43
1.0000
 50
0.0000
  0
INSERT
  8
31
  2
RECT
 10
61.0500
 20
9.0000
 30
0.0000
 41
1.3000
 42
1.5000
 43
1.0000
 50
0.0000
  0
INSERT
  8
31
  2
RECT
 10
62.9500
 20
9.0000
 30
0.0000
 41
1.3000
 42
1.5000
 43
1.0000
 50
0.0000
  0
INSERT
  8
31
  2
RECT
 10
68.0000
 20
11.0500
 30
0.0000
 41
1.3000
 42
1.5000
 43
1.0000
 50
90.0000
  0
INSERT
  8
31
  2
RECT
 10
68.0000
 20
12.9500
 30
0.0000
 41
1.3000
 42
1.5000
 43
1.0000
 50
90.0000
  0
INSERT
  8
31
  2
RECT
 10
66.0000
 20
11.0500
 30
0.0000
 41
1.3000
 42
1.5000
 43
1.0000
 50
90.0000
  0
INSERT
  8
31
  2
RECT
 10
66.0000
 20
12.9500
 30
0.0000
 41
1.3000
 42
1.5000
 43
1.0000
 50
90.0000
  0
INSERT
  8
31
  2
RECT
 10
189.6370
 20
4.1330
 30
0.0000
 41
0.9100
 42
1.2200
 43
1.0000
 50
90.0000
  0
INSERT
  8
31
  2
RECT
 10
189.6370
 20
0.8830
 30
0.0000
 41
0.9100
 42
1.2200
 43
1.0000
 50
270.0000
  0
INSERT
  8
31
  2
RECT
 10
204.1650
 20
1.2830
 30
0.0000
 41
0.9100
 42
1.2200
 43
1.0000
 50
0.0000
  0
INSERT
  8
31
  2
RECT
 10
200.9150
 20
1.2830
 30
0.0000
 41
0.9100
 42
1.2200
 43
1.0000
 50
180.0000
  0
INSERT
  8
31
  2
RECT
 10
203.2000
 20
3.4100
 30
0.0000
 41
1.1000
 42
1.0000
 43
1.0000
 50
180.0000
  0
INSERT
  8
31
  2
RECT
 10
201.5000
 20
3.4100
 30
0.0000
 41
1.1000
 42
1.0000
 43
1.0000
 50
180.0000
  0
INSERT
  8
31
  2
RECT
 10
6.3000
 20
12.4500
 30
0.0000
 41
2.0000
 42
2.5000
 43
1.0000
 50
0.0000
  0
INSERT
  8
31
  2
RECT
 10
3.5000
 20
12.4500
 30
0.0000
 41
1.2000
 42
2.5000
 43
1.0000
 50
180.0000
  0
INSERT
  8
31
  2
RECT
 10
4.4000
 20
5.5500
 30
0.0000
 41
2.0000
 42
2.5000
 43
1.0000
 50
0.0000
  0
INSERT
  8
31
  2
RECT
 10
13.7000
 20
5.5500
 30
0.0000
 41
2.0000
 42
2.5000
 43
1.0000
 50
0.0000
  0
INSERT
  8
31
  2
RECT
 10
17.7500
 20
9.7500
 30
0.0000
 41
2.0000
 42
2.5000
 43
1.0000
 50
90.0000
  0
INSERT
  8
31
  2
RECT
 10
189.6840
 20
9.0650
 30
0.0000
 41
1.7000
 42
0.6000
 43
1.0000
 50
270.0000
  0
INSERT
  8
31
  2
RECT
 10
188.4140
 20
9.0650
 30
0.0000
 41
1.7000
 42
0.6000
 43
1.0000
 50
270.0000
  0
INSERT
  8
31
  2
RECT
 10
187.2240
 20
12.4940
 30
0.0000
 41
1.0000
 42
2.7000
 43
1.0000
 50
0.0000
  0
INSERT
  8
31
  2
RECT
 10
190.8740
 20
12.4940
 30
0.0000
 41
1.0000
 42
2.7000
 43
1.0000
 50
0.0000
  0
INSERT
  8
31
  2
RECT
 10
147.2100
 20
4.5100
 30
0.0000
 41
0.7000
 42
1.2000
 43
1.0000
 50
90.0000
  0
INSERT
  8
31
  2
RECT
 10
147.2100
 20
5.6100
 30
0.0000
 41
0.7000
 42
1.2000
 43
1.0000
 50
90.0000
  0
INSERT
  8
31
  2
RECT
 10
147.2100
 20
6.7100
 30
0.0000
 41
0.7000
 42
1.2000
 43
1.0000
 50
90.0000
  0
INSERT
  8
31
  2
RECT
 10
147.2100
 20
7.8100
 30
0.0000
 41
0.7000
 42
1.2000
 43
1.0000
 50
90.0000
  0
INSERT
  8
31
  2
RECT
 10
147.2100
 20
8.9100
 30
0.0000
 41
0.7000
 42
1.2000
 43
1.0000
 50
90.0000
  0
INSERT
  8
31
  2
RECT
 10
147.2100
 20
10.0100
 30
0.0000
 41
0.7000
 42
1.2000
 43
1.0000
 50
90.0000
  0
INSERT
  8
31
  2
RECT
 10
147.2100
 20
11.1100
 30
0.0000
 41
0.7000
 42
1.2000
 43
1.0000
 50
90.0000
  0
INSERT
  8
31
  2
RECT
 10
147.2100
 20
12.2100
 30
0.0000
 41
0.7000
 42
1.2000
 43
1.0000
 50
90.0000
  0
INSERT
  8
31
  2
RECT
 10
147.2100
 20
13.1800
 30
0.0000
 41
0.7000
 42
1.2000
 43
1.0000
 50
90.0000
  0
INSERT
  8
31
  2
RECT
 10
147.2100
 20
2.9600
 30
0.0000
 41
1.0000
 42
1.2000
 43
1.0000
 50
90.0000
  0
INSERT
  8
31
  2
RECT
 10
142.9000
 20
14.5100
 30
0.0000
 41
1.0000
 42
1.2000
 43
1.0000
 50
90.0000
  0
INSERT
  8
31
  2
RECT
 10
136.6900
 20
14.4700
 30
0.0000
 41
0.7500
 42
0.8000
 43
1.0000
 50
270.0000
  0
INSERT
  8
31
  2
RECT
 10
133.3800
 20
14.5500
 30
0.0000
 41
2.8000
 42
0.8000
 43
1.0000
 50
0.0000
  0
INSERT
  8
31
  2
RECT
 10
132.7600
 20
0.6500
 30
0.0000
 41
1.9000
 42
1.3000
 43
1.0000
 50
0.0000
  0
INSERT
  8
31
  2
RECT
 10
208.0000
 20
2.3160
 30
0.0000
 41
1.5000
 42
1.8000
 43
1.0000
 50
180.0000
  0
INSERT
  8
31
  2
RECT
 10
208.0000
 20
6.0000
 30
0.0000
 41
0.7000
 42
1.5000
 43
1.0000
 50
180.0000
  0
INSERT
  8
31
  2
RECT
 10
208.0000
 20
9.6840
 30
0.0000
 41
1.5000
 42
1.8000
 43
1.0000
 50
180.0000
  0
INSERT
  8
31
  2
RECT
 10
205.2750
 20
6.0000
 30
0.0000
 41
0.4000
 42
1.4500
 43
1.0000
 50
270.0000
  0
INSERT
  8
31
  2
RECT
 10
205.2750
 20
5.3500
 30
0.0000
 41
0.4000
 42
1.4500
 43
1.0000
 50
270.0000
  0
INSERT
  8
31
  2
RECT
 10
205.2750
 20
7.3000
 30
0.0000
 41
0.4000
 42
1.4500
 43
1.0000
 50
270.0000
  0
INSERT
  8
31
  2
RECT
 10
205.2750
 20
6.6500
 30
0.0000
 41
0.4000
 42
1.4500
 43
1.0000
 50
270.0000
  0
INSERT
  8
31
  2
RECT
 10
205.2750
 20
4.7000
 30
0.0000
 41
0.4000
 42
1.4500
 43
1.0000
 50
270.0000
  0
INSERT
  8
31
  2
RECT160000X160000R30
 10
169.7440
 20
11.7260
 30
0.0000
 41
1.0000
 42
1.0000
 43
1.0000
 50
0.0000
  0
INSERT
  8
31
  2
RECT160000X160000R30
 10
169.7440
 20
13.4800
 30
0.0000
 41
1.0000
 42
1.0000
 43
1.0000
 50
0.0000
  0
INSERT
  8
31
  2
RECT
 10
56.5000
 20
3.1020
 30
0.0000
 41
2.6000
 42
0.3500
 43
1.0000
 50
0.0000
  0
INSERT
  8
31
  2
RECT
 10
56.5000
 20
3.7520
 30
0.0000
 41
2.6000
 42
0.3500
 43
1.0000
 50
0.0000
  0
INSERT
  8
31
  2
RECT
 10
56.5000
 20
4.4020
 30
0.0000
 41
2.6000
 42
0.3500
 43
1.0000
 50
0.0000
  0
INSERT
  8
31
  2
RECT
 10
56.5000
 20
5.0520
 30
0.0000
 41
2.6000
 42
0.3500
 43
1.0000
 50
0.0000
  0
INSERT
  8
31
  2
RECT
 10
56.5000
 20
5.7020
 30
0.0000
 41
2.6000
 42
0.3500
 43
1.0000
 50
0.0000
  0
INSERT
  8
31
  2
RECT
 10
56.5000
 20
6.3520
 30
0.0000
 41
2.6000
 42
0.3500
 43
1.0000
 50
0.0000
  0
INSERT
  8
31
  2
RECT
 10
56.5000
 20
7.0020
 30
0.0000
 41
2.6000
 42
0.3500
 43
1.0000
 50
0.0000
  0
INSERT
  8
31
  2
RECT
 10
56.5000
 20
7.6520
 30
0.0000
 41
2.6000
 42
0.3500
 43
1.0000
 50
0.0000
  0
INSERT
  8
31
  2
RECT
 10
56.5000
 20
8.3020
 30
0.0000
 41
2.6000
 42
0.3500
 43
1.0000
 50
0.0000
  0
INSERT
  8
31
  2
RECT
 10
56.5000
 20
8.9520
 30
0.0000
 41
2.6000
 42
0.3500
 43
1.0000
 50
0.0000
  0
INSERT
  8
31
  2
RECT
 10
56.5000
 20
9.6020
 30
0.0000
 41
2.6000
 42
0.3500
 43
1.0000
 50
0.0000
  0
INSERT
  8
31
  2
RECT
 10
56.5000
 20
10.2520
 30
0.0000
 41
2.6000
 42
0.3500
 43
1.0000
 50
0.0000
  0
INSERT
  8
31
  2
RECT
 10
56.5000
 20
10.9020
 30
0.0000
 41
2.6000
 42
0.3500
 43
1.0000
 50
0.0000
  0
INSERT
  8
31
  2
RECT
 10
56.5000
 20
11.5520
 30
0.0000
 41
2.6000
 42
0.3500
 43
1.0000
 50
0.0000
  0
INSERT
  8
31
  2
RECT
 10
56.5000
 20
12.2020
 30
0.0000
 41
2.6000
 42
0.3500
 43
1.0000
 50
0.0000
  0
INSERT
  8
31
  2
RECT
 10
178.8000
 20
13.0000
 30
0.0000
 41
1.9000
 42
1.5000
 43
1.0000
 50
90.0000
  0
INSERT
  8
31
  2
RECT
 10
183.2000
 20
13.0000
 30
0.0000
 41
1.9000
 42
1.5000
 43
1.0000
 50
90.0000
  0
INSERT
  8
31
  2
RECT
 10
20.8500
 20
7.8500
 30
0.0000
 41
1.9000
 42
1.1000
 43
1.0000
 50
270.0000
  0
INSERT
  8
31
  2
RECT
 10
20.8500
 20
4.1500
 30
0.0000
 41
1.9000
 42
1.1000
 43
1.0000
 50
270.0000
  0
INSERT
  8
31
  2
RECT
 10
23.1500
 20
4.1500
 30
0.0000
 41
1.9000
 42
1.1000
 43
1.0000
 50
270.0000
  0
INSERT
  8
31
  2
RECT
 10
23.1500
 20
7.8500
 30
0.0000
 41
1.9000
 42
1.1000
 43
1.0000
 50
270.0000
  0
INSERT
  8
31
  2
RECT
 10
25.0500
 20
7.8500
 30
0.0000
 41
1.0000
 42
1.1000
 43
1.0000
 50
270.0000
  0
INSERT
  8
31
  2
RECT
 10
25.0500
 20
6.1500
 30
0.0000
 41
1.0000
 42
1.1000
 43
1.0000
 50
270.0000
  0
INSERT
  8
31
  2
RECT
 10
28.4000
 20
1.0000
 30
0.0000
 41
1.0000
 42
1.1000
 43
1.0000
 50
0.0000
  0
INSERT
  8
31
  2
RECT
 10
30.1000
 20
1.0000
 30
0.0000
 41
1.0000
 42
1.1000
 43
1.0000
 50
0.0000
  0
INSERT
  8
31
  2
RECT
 10
32.1500
 20
1.0000
 30
0.0000
 41
1.0000
 42
1.1000
 43
1.0000
 50
0.0000
  0
INSERT
  8
31
  2
RECT
 10
33.8500
 20
1.0000
 30
0.0000
 41
1.0000
 42
1.1000
 43
1.0000
 50
0.0000
  0
INSERT
  8
31
  2
RECT
 10
23.0000
 20
11.8500
 30
0.0000
 41
1.0000
 42
1.1000
 43
1.0000
 50
270.0000
  0
INSERT
  8
31
  2
RECT
 10
23.0000
 20
10.1500
 30
0.0000
 41
1.0000
 42
1.1000
 43
1.0000
 50
270.0000
  0
INSERT
  8
31
  2
RECT
 10
10.1500
 20
3.0000
 30
0.0000
 41
1.0000
 42
1.1000
 43
1.0000
 50
0.0000
  0
INSERT
  8
31
  2
RECT
 10
11.8500
 20
3.0000
 30
0.0000
 41
1.0000
 42
1.1000
 43
1.0000
 50
0.0000
  0
INSERT
  8
31
  2
RECT
 10
1.1500
 20
3.0000
 30
0.0000
 41
1.0000
 42
1.1000
 43
1.0000
 50
0.0000
  0
INSERT
  8
31
  2
RECT
 10
2.8500
 20
3.0000
 30
0.0000
 41
1.0000
 42
1.1000
 43
1.0000
 50
0.0000
  0
INSERT
  8
31
  2
RECT
 10
61.0500
 20
13.0000
 30
0.0000
 41
1.3000
 42
1.5000
 43
1.0000
 50
0.0000
  0
INSERT
  8
31
  2
RECT
 10
62.9500
 20
13.0000
 30
0.0000
 41
1.3000
 42
1.5000
 43
1.0000
 50
0.0000
  0
INSERT
  8
31
  2
RECT
 10
6.3000
 20
1.3500
 30
0.0000
 41
1.0000
 42
1.1000
 43
1.0000
 50
180.0000
  0
INSERT
  8
31
  2
RECT
 10
4.6000
 20
1.3500
 30
0.0000
 41
1.0000
 42
1.1000
 43
1.0000
 50
180.0000
  0
INSERT
  8
31
  2
RECT
 10
196.1180
 20
11.8870
 30
0.0000
 41
1.0000
 42
1.1000
 43
1.0000
 50
180.0000
  0
INSERT
  8
31
  2
RECT
 10
194.4180
 20
11.8870
 30
0.0000
 41
1.0000
 42
1.1000
 43
1.0000
 50
180.0000
  0
INSERT
  8
31
  2
RECT
 10
186.1050
 20
1.3970
 30
0.0000
 41
1.0000
 42
1.1000
 43
1.0000
 50
180.0000
  0
INSERT
  8
31
  2
RECT
 10
184.4050
 20
1.3970
 30
0.0000
 41
1.0000
 42
1.1000
 43
1.0000
 50
180.0000
  0
INSERT
  8
31
  2
RECT
 10
171.1500
 20
11.9500
 30
0.0000
 41
1.0000
 42
1.1000
 43
1.0000
 50
0.0000
  0
INSERT
  8
31
  2
RECT
 10
172.8500
 20
11.9500
 30
0.0000
 41
1.0000
 42
1.1000
 43
1.0000
 50
0.0000
  0
INSERT
  8
31
  2
RECT
 10
25.5500
 20
13.8000
 30
0.0000
 41
1.0000
 42
1.1000
 43
1.0000
 50
0.0000
  0
INSERT
  8
31
  2
RECT
 10
27.2500
 20
13.8000
 30
0.0000
 41
1.0000
 42
1.1000
 43
1.0000
 50
0.0000
  0
INSERT
  8
31
  2
RECT
 10
202.6150
 20
7.9220
 30
0.0000
 41
1.0000
 42
1.1000
 43
1.0000
 50
180.0000
  0
INSERT
  8
31
  2
RECT
 10
200.9150
 20
7.9220
 30
0.0000
 41
1.0000
 42
1.1000
 43
1.0000
 50
180.0000
  0
INSERT
  8
31
  2
RECT
 10
202.6150
 20
5.7630
 30
0.0000
 41
1.0000
 42
1.1000
 43
1.0000
 50
180.0000
  0
INSERT
  8
31
  2
RECT
 10
200.9150
 20
5.7630
 30
0.0000
 41
1.0000
 42
1.1000
 43
1.0000
 50
180.0000
  0
INSERT
  8
31
  2
RECT
 10
187.3130
 20
4.9920
 30
0.0000
 41
0.7000
 42
0.7000
 43
1.0000
 50
180.0000
  0
INSERT
  8
31
  2
RECT
 10
187.3130
 20
6.6420
 30
0.0000
 41
0.7000
 42
0.7000
 43
1.0000
 50
180.0000
  0
INSERT
  8
31
  2
RECT
 10
184.1630
 20
4.9920
 30
0.0000
 41
0.7000
 42
0.7000
 43
1.0000
 50
180.0000
  0
INSERT
  8
31
  2
RECT
 10
184.1630
 20
6.6420
 30
0.0000
 41
0.7000
 42
0.7000
 43
1.0000
 50
180.0000
  0
INSERT
  8
31
  2
RECT
 10
187.5130
 20
5.8420
 30
0.0000
 41
0.7000
 42
0.3250
 43
1.0000
 50
270.0000
  0
INSERT
  8
31
  2
RECT
 10
183.9630
 20
5.8420
 30
0.0000
 41
0.7000
 42
0.3250
 43
1.0000
 50
270.0000
  0
INSERT
  8
31
  2
RECT
 10
105.1500
 20
6.4500
 30
0.0000
 41
0.7000
 42
0.7000
 43
1.0000
 50
90.0000
  0
INSERT
  8
31
  2
RECT
 10
106.8000
 20
6.4500
 30
0.0000
 41
0.7000
 42
0.7000
 43
1.0000
 50
90.0000
  0
INSERT
  8
31
  2
RECT
 10
105.1500
 20
9.6000
 30
0.0000
 41
0.7000
 42
0.7000
 43
1.0000
 50
90.0000
  0
INSERT
  8
31
  2
RECT
 10
106.8000
 20
9.6000
 30
0.0000
 41
0.7000
 42
0.7000
 43
1.0000
 50
90.0000
  0
INSERT
  8
31
  2
RECT
 10
106.0000
 20
6.2500
 30
0.0000
 41
0.7000
 42
0.3250
 43
1.0000
 50
180.0000
  0
INSERT
  8
31
  2
RECT
 10
106.0000
 20
9.8000
 30
0.0000
 41
0.7000
 42
0.3250
 43
1.0000
 50
180.0000
  0
INSERT
  8
31
  2
RECT
 10
95.1500
 20
6.4500
 30
0.0000
 41
0.7000
 42
0.7000
 43
1.0000
 50
90.0000
  0
INSERT
  8
31
  2
RECT
 10
96.8000
 20
6.4500
 30
0.0000
 41
0.7000
 42
0.7000
 43
1.0000
 50
90.0000
  0
INSERT
  8
31
  2
RECT
 10
95.1500
 20
9.6000
 30
0.0000
 41
0.7000
 42
0.7000
 43
1.0000
 50
90.0000
  0
INSERT
  8
31
  2
RECT
 10
96.8000
 20
9.6000
 30
0.0000
 41
0.7000
 42
0.7000
 43
1.0000
 50
90.0000
  0
INSERT
  8
31
  2
RECT
 10
96.0000
 20
6.2500
 30
0.0000
 41
0.7000
 42
0.3250
 43
1.0000
 50
180.0000
  0
INSERT
  8
31
  2
RECT
 10
96.0000
 20
9.8000
 30
0.0000
 41
0.7000
 42
0.3250
 43
1.0000
 50
180.0000
  0
INSERT
  8
31
  2
RECT
 10
100.1500
 20
6.4500
 30
0.0000
 41
0.7000
 42
0.7000
 43
1.0000
 50
90.0000
  0
INSERT
  8
31
  2
RECT
 10
101.8000
 20
6.4500
 30
0.0000
 41
0.7000
 42
0.7000
 43
1.0000
 50
90.0000
  0
INSERT
  8
31
  2
RECT
 10
100.1500
 20
9.6000
 30
0.0000
 41
0.7000
 42
0.7000
 43
1.0000
 50
90.0000
  0
INSERT
  8
31
  2
RECT
 10
101.8000
 20
9.6000
 30
0.0000
 41
0.7000
 42
0.7000
 43
1.0000
 50
90.0000
  0
INSERT
  8
31
  2
RECT
 10
101.0000
 20
6.2500
 30
0.0000
 41
0.7000
 42
0.3250
 43
1.0000
 50
180.0000
  0
INSERT
  8
31
  2
RECT
 10
101.0000
 20
9.8000
 30
0.0000
 41
0.7000
 42
0.3250
 43
1.0000
 50
180.0000
  0
INSERT
  8
31
  2
RECT
 10
91.8500
 20
9.5500
 30
0.0000
 41
0.7000
 42
0.7000
 43
1.0000
 50
270.0000
  0
INSERT
  8
31
  2
RECT
 10
90.2000
 20
9.5500
 30
0.0000
 41
0.7000
 42
0.7000
 43
1.0000
 50
270.0000
  0
INSERT
  8
31
  2
RECT
 10
91.8500
 20
6.4000
 30
0.0000
 41
0.7000
 42
0.7000
 43
1.0000
 50
270.0000
  0
INSERT
  8
31
  2
RECT
 10
90.2000
 20
6.4000
 30
0.0000
 41
0.7000
 42
0.7000
 43
1.0000
 50
270.0000
  0
INSERT
  8
31
  2
RECT
 10
91.0000
 20
9.7500
 30
0.0000
 41
0.7000
 42
0.3250
 43
1.0000
 50
0.0000
  0
INSERT
  8
31
  2
RECT
 10
91.0000
 20
6.2000
 30
0.0000
 41
0.7000
 42
0.3250
 43
1.0000
 50
0.0000
  0
INSERT
  8
31
  2
RECT
 10
85.1500
 20
6.4500
 30
0.0000
 41
0.7000
 42
0.7000
 43
1.0000
 50
90.0000
  0
INSERT
  8
31
  2
RECT
 10
86.8000
 20
6.4500
 30
0.0000
 41
0.7000
 42
0.7000
 43
1.0000
 50
90.0000
  0
INSERT
  8
31
  2
RECT
 10
85.1500
 20
9.6000
 30
0.0000
 41
0.7000
 42
0.7000
 43
1.0000
 50
90.0000
  0
INSERT
  8
31
  2
RECT
 10
86.8000
 20
9.6000
 30
0.0000
 41
0.7000
 42
0.7000
 43
1.0000
 50
90.0000
  0
INSERT
  8
31
  2
RECT
 10
86.0000
 20
6.2500
 30
0.0000
 41
0.7000
 42
0.3250
 43
1.0000
 50
180.0000
  0
INSERT
  8
31
  2
RECT
 10
86.0000
 20
9.8000
 30
0.0000
 41
0.7000
 42
0.3250
 43
1.0000
 50
180.0000
  0
INSERT
  8
31
  2
RECT
 10
199.3821
 20
0.8760
 30
0.0000
 41
0.5500
 42
1.2000
 43
1.0000
 50
90.0000
  0
INSERT
  8
31
  2
RECT
 10
199.3821
 20
1.8260
 30
0.0000
 41
0.5500
 42
1.2000
 43
1.0000
 50
90.0000
  0
INSERT
  8
31
  2
RECT
 10
199.3821
 20
2.7760
 30
0.0000
 41
0.5500
 42
1.2000
 43
1.0000
 50
90.0000
  0
INSERT
  8
31
  2
RECT
 10
196.7819
 20
2.7760
 30
0.0000
 41
0.5500
 42
1.2000
 43
1.0000
 50
90.0000
  0
INSERT
  8
31
  2
RECT
 10
196.7819
 20
0.8760
 30
0.0000
 41
0.5500
 42
1.2000
 43
1.0000
 50
90.0000
  0
INSERT
  8
31
  2
RECT
 10
180.5620
 20
10.1346
 30
0.0000
 41
1.2700
 42
0.5588
 43
1.0000
 50
270.0000
  0
INSERT
  8
31
  2
RECT
 10
179.7620
 20
10.1346
 30
0.0000
 41
1.2700
 42
0.5588
 43
1.0000
 50
270.0000
  0
INSERT
  8
31
  2
RECT
 10
178.9620
 20
10.1346
 30
0.0000
 41
1.2700
 42
0.5588
 43
1.0000
 50
270.0000
  0
INSERT
  8
31
  2
RECT
 10
178.1620
 20
10.1346
 30
0.0000
 41
1.2700
 42
0.5588
 43
1.0000
 50
270.0000
  0
INSERT
  8
31
  2
RECT
 10
177.3620
 20
10.1346
 30
0.0000
 41
1.2700
 42
0.5588
 43
1.0000
 50
270.0000
  0
INSERT
  8
31
  2
RECT
 10
176.5620
 20
10.1346
 30
0.0000
 41
1.2700
 42
0.5588
 43
1.0000
 50
270.0000
  0
INSERT
  8
31
  2
RECT
 10
175.7620
 20
10.1346
 30
0.0000
 41
1.2700
 42
0.5588
 43
1.0000
 50
270.0000
  0
INSERT
  8
31
  2
RECT
 10
174.9620
 20
10.1346
 30
0.0000
 41
1.2700
 42
0.5588
 43
1.0000
 50
270.0000
  0
INSERT
  8
31
  2
RECT
 10
173.4694
 20
8.6420
 30
0.0000
 41
0.5588
 42
1.2700
 43
1.0000
 50
270.0000
  0
INSERT
  8
31
  2
RECT
 10
173.4694
 20
7.8420
 30
0.0000
 41
0.5588
 42
1.2700
 43
1.0000
 50
270.0000
  0
INSERT
  8
31
  2
RECT
 10
173.4694
 20
7.0420
 30
0.0000
 41
0.5588
 42
1.2700
 43
1.0000
 50
270.0000
  0
INSERT
  8
31
  2
RECT
 10
173.4694
 20
6.2420
 30
0.0000
 41
0.5588
 42
1.2700
 43
1.0000
 50
270.0000
  0
INSERT
  8
31
  2
RECT
 10
173.4694
 20
5.4420
 30
0.0000
 41
0.5588
 42
1.2700
 43
1.0000
 50
270.0000
  0
INSERT
  8
31
  2
RECT
 10
173.4694
 20
4.6420
 30
0.0000
 41
0.5588
 42
1.2700
 43
1.0000
 50
270.0000
  0
INSERT
  8
31
  2
RECT
 10
173.4694
 20
3.8420
 30
0.0000
 41
0.5588
 42
1.2700
 43
1.0000
 50
270.0000
  0
INSERT
  8
31
  2
RECT
 10
173.4694
 20
3.0420
 30
0.0000
 41
0.5588
 42
1.2700
 43
1.0000
 50
270.0000
  0
INSERT
  8
31
  2
RECT
 10
174.9620
 20
1.5494
 30
0.0000
 41
1.2700
 42
0.5588
 43
1.0000
 50
270.0000
  0
INSERT
  8
31
  2
RECT
 10
175.7620
 20
1.5494
 30
0.0000
 41
1.2700
 42
0.5588
 43
1.0000
 50
270.0000
  0
INSERT
  8
31
  2
RECT
 10
176.5620
 20
1.5494
 30
0.0000
 41
1.2700
 42
0.5588
 43
1.0000
 50
270.0000
  0
INSERT
  8
31
  2
RECT
 10
177.3620
 20
1.5494
 30
0.0000
 41
1.2700
 42
0.5588
 43
1.0000
 50
270.0000
  0
INSERT
  8
31
  2
RECT
 10
178.1620
 20
1.5494
 30
0.0000
 41
1.2700
 42
0.5588
 43
1.0000
 50
270.0000
  0
INSERT
  8
31
  2
RECT
 10
178.9620
 20
1.5494
 30
0.0000
 41
1.2700
 42
0.5588
 43
1.0000
 50
270.0000
  0
INSERT
  8
31
  2
RECT
 10
179.7620
 20
1.5494
 30
0.0000
 41
1.2700
 42
0.5588
 43
1.0000
 50
270.0000
  0
INSERT
  8
31
  2
RECT
 10
180.5620
 20
1.5494
 30
0.0000
 41
1.2700
 42
0.5588
 43
1.0000
 50
270.0000
  0
INSERT
  8
31
  2
RECT
 10
182.0546
 20
3.0420
 30
0.0000
 41
0.5588
 42
1.2700
 43
1.0000
 50
270.0000
  0
INSERT
  8
31
  2
RECT
 10
182.0546
 20
3.8420
 30
0.0000
 41
0.5588
 42
1.2700
 43
1.0000
 50
270.0000
  0
INSERT
  8
31
  2
RECT
 10
182.0546
 20
4.6420
 30
0.0000
 41
0.5588
 42
1.2700
 43
1.0000
 50
270.0000
  0
INSERT
  8
31
  2
RECT
 10
182.0546
 20
5.4420
 30
0.0000
 41
0.5588
 42
1.2700
 43
1.0000
 50
270.0000
  0
INSERT
  8
31
  2
RECT
 10
182.0546
 20
6.2420
 30
0.0000
 41
0.5588
 42
1.2700
 43
1.0000
 50
270.0000
  0
INSERT
  8
31
  2
RECT
 10
182.0546
 20
7.0420
 30
0.0000
 41
0.5588
 42
1.2700
 43
1.0000
 50
270.0000
  0
INSERT
  8
31
  2
RECT
 10
182.0546
 20
7.8420
 30
0.0000
 41
0.5588
 42
1.2700
 43
1.0000
 50
270.0000
  0
INSERT
  8
31
  2
RECT
 10
182.0546
 20
8.6420
 30
0.0000
 41
0.5588
 42
1.2700
 43
1.0000
 50
270.0000
  0
INSERT
  8
31
  2
RECT
 10
34.7500
 20
12.2500
 30
0.0000
 41
0.2540
 42
1.1430
 43
1.0000
 50
180.0000
  0
INSERT
  8
31
  2
RECT
 10
34.2500
 20
12.2500
 30
0.0000
 41
0.2540
 42
1.1430
 43
1.0000
 50
180.0000
  0
INSERT
  8
31
  2
RECT
 10
33.7500
 20
12.2500
 30
0.0000
 41
0.2540
 42
1.1430
 43
1.0000
 50
180.0000
  0
INSERT
  8
31
  2
RECT
 10
33.2500
 20
12.2500
 30
0.0000
 41
0.2540
 42
1.1430
 43
1.0000
 50
180.0000
  0
INSERT
  8
31
  2
RECT
 10
32.7500
 20
12.2500
 30
0.0000
 41
0.2540
 42
1.1430
 43
1.0000
 50
180.0000
  0
INSERT
  8
31
  2
RECT
 10
32.2500
 20
12.2500
 30
0.0000
 41
0.2540
 42
1.1430
 43
1.0000
 50
180.0000
  0
INSERT
  8
31
  2
RECT
 10
31.7500
 20
12.2500
 30
0.0000
 41
0.2540
 42
1.1430
 43
1.0000
 50
180.0000
  0
INSERT
  8
31
  2
RECT
 10
31.2500
 20
12.2500
 30
0.0000
 41
0.2540
 42
1.1430
 43
1.0000
 50
180.0000
  0
INSERT
  8
31
  2
RECT
 10
30.7500
 20
12.2500
 30
0.0000
 41
0.2540
 42
1.1430
 43
1.0000
 50
180.0000
  0
INSERT
  8
31
  2
RECT
 10
30.2500
 20
12.2500
 30
0.0000
 41
0.2540
 42
1.1430
 43
1.0000
 50
180.0000
  0
INSERT
  8
31
  2
RECT
 10
29.7500
 20
12.2500
 30
0.0000
 41
0.2540
 42
1.1430
 43
1.0000
 50
180.0000
  0
INSERT
  8
31
  2
RECT
 10
29.2500
 20
12.2500
 30
0.0000
 41
0.2540
 42
1.1430
 43
1.0000
 50
180.0000
  0
INSERT
  8
31
  2
RECT
 10
27.7500
 20
10.7500
 30
0.0000
 41
1.1430
 42
0.2540
 43
1.0000
 50
180.0000
  0
INSERT
  8
31
  2
RECT
 10
27.7500
 20
10.2500
 30
0.0000
 41
1.1430
 42
0.2540
 43
1.0000
 50
180.0000
  0
INSERT
  8
31
  2
RECT
 10
27.7500
 20
9.7500
 30
0.0000
 41
1.1430
 42
0.2540
 43
1.0000
 50
180.0000
  0
INSERT
  8
31
  2
RECT
 10
27.7500
 20
9.2500
 30
0.0000
 41
1.1430
 42
0.2540
 43
1.0000
 50
180.0000
  0
INSERT
  8
31
  2
RECT
 10
27.7500
 20
8.7500
 30
0.0000
 41
1.1430
 42
0.2540
 43
1.0000
 50
180.0000
  0
INSERT
  8
31
  2
RECT
 10
27.7500
 20
8.2500
 30
0.0000
 41
1.1430
 42
0.2540
 43
1.0000
 50
180.0000
  0
INSERT
  8
31
  2
RECT
 10
27.7500
 20
7.7500
 30
0.0000
 41
1.1430
 42
0.2540
 43
1.0000
 50
180.0000
  0
INSERT
  8
31
  2
RECT
 10
27.7500
 20
7.2500
 30
0.0000
 41
1.1430
 42
0.2540
 43
1.0000
 50
180.0000
  0
INSERT
  8
31
  2
RECT
 10
27.7500
 20
6.7500
 30
0.0000
 41
1.1430
 42
0.2540
 43
1.0000
 50
180.0000
  0
INSERT
  8
31
  2
RECT
 10
27.7500
 20
6.2500
 30
0.0000
 41
1.1430
 42
0.2540
 43
1.0000
 50
180.0000
  0
INSERT
  8
31
  2
RECT
 10
27.7500
 20
5.7500
 30
0.0000
 41
1.1430
 42
0.2540
 43
1.0000
 50
180.0000
  0
INSERT
  8
31
  2
RECT
 10
27.7500
 20
5.2500
 30
0.0000
 41
1.1430
 42
0.2540
 43
1.0000
 50
180.0000
  0
INSERT
  8
31
  2
RECT
 10
29.2500
 20
3.7500
 30
0.0000
 41
0.2540
 42
1.1430
 43
1.0000
 50
180.0000
  0
INSERT
  8
31
  2
RECT
 10
29.7500
 20
3.7500
 30
0.0000
 41
0.2540
 42
1.1430
 43
1.0000
 50
180.0000
  0
INSERT
  8
31
  2
RECT
 10
30.2500
 20
3.7500
 30
0.0000
 41
0.2540
 42
1.1430
 43
1.0000
 50
180.0000
  0
INSERT
  8
31
  2
RECT
 10
30.7500
 20
3.7500
 30
0.0000
 41
0.2540
 42
1.1430
 43
1.0000
 50
180.0000
  0
INSERT
  8
31
  2
RECT
 10
31.2500
 20
3.7500
 30
0.0000
 41
0.2540
 42
1.1430
 43
1.0000
 50
180.0000
  0
INSERT
  8
31
  2
RECT
 10
31.7500
 20
3.7500
 30
0.0000
 41
0.2540
 42
1.1430
 43
1.0000
 50
180.0000
  0
INSERT
  8
31
  2
RECT
 10
32.2500
 20
3.7500
 30
0.0000
 41
0.2540
 42
1.1430
 43
1.0000
 50
180.0000
  0
INSERT
  8
31
  2
RECT
 10
32.7500
 20
3.7500
 30
0.0000
 41
0.2540
 42
1.1430
 43
1.0000
 50
180.0000
  0
INSERT
  8
31
  2
RECT
 10
33.2500
 20
3.7500
 30
0.0000
 41
0.2540
 42
1.1430
 43
1.0000
 50
180.0000
  0
INSERT
  8
31
  2
RECT
 10
33.7500
 20
3.7500
 30
0.0000
 41
0.2540
 42
1.1430
 43
1.0000
 50
180.0000
  0
INSERT
  8
31
  2
RECT
 10
34.2500
 20
3.7500
 30
0.0000
 41
0.2540
 42
1.1430
 43
1.0000
 50
180.0000
  0
INSERT
  8
31
  2
RECT
 10
34.7500
 20
3.7500
 30
0.0000
 41
0.2540
 42
1.1430
 43
1.0000
 50
180.0000
  0
INSERT
  8
31
  2
RECT
 10
36.2500
 20
5.2500
 30
0.0000
 41
1.1430
 42
0.2540
 43
1.0000
 50
180.0000
  0
INSERT
  8
31
  2
RECT
 10
36.2500
 20
5.7500
 30
0.0000
 41
1.1430
 42
0.2540
 43
1.0000
 50
180.0000
  0
INSERT
  8
31
  2
RECT
 10
36.2500
 20
6.2500
 30
0.0000
 41
1.1430
 42
0.2540
 43
1.0000
 50
180.0000
  0
INSERT
  8
31
  2
RECT
 10
36.2500
 20
6.7500
 30
0.0000
 41
1.1430
 42
0.2540
 43
1.0000
 50
180.0000
  0
INSERT
  8
31
  2
RECT
 10
36.2500
 20
7.2500
 30
0.0000
 41
1.1430
 42
0.2540
 43
1.0000
 50
180.0000
  0
INSERT
  8
31
  2
RECT
 10
36.2500
 20
7.7500
 30
0.0000
 41
1.1430
 42
0.2540
 43
1.0000
 50
180.0000
  0
INSERT
  8
31
  2
RECT
 10
36.2500
 20
8.2500
 30
0.0000
 41
1.1430
 42
0.2540
 43
1.0000
 50
180.0000
  0
INSERT
  8
31
  2
RECT
 10
36.2500
 20
8.7500
 30
0.0000
 41
1.1430
 42
0.2540
 43
1.0000
 50
180.0000
  0
INSERT
  8
31
  2
RECT
 10
36.2500
 20
9.2500
 30
0.0000
 41
1.1430
 42
0.2540
 43
1.0000
 50
180.0000
  0
INSERT
  8
31
  2
RECT
 10
36.2500
 20
9.7500
 30
0.0000
 41
1.1430
 42
0.2540
 43
1.0000
 50
180.0000
  0
INSERT
  8
31
  2
RECT
 10
36.2500
 20
10.2500
 30
0.0000
 41
1.1430
 42
0.2540
 43
1.0000
 50
180.0000
  0
INSERT
  8
31
  2
RECT
 10
36.2500
 20
10.7500
 30
0.0000
 41
1.1430
 42
0.2540
 43
1.0000
 50
180.0000
  0
INSERT
  8
31
  2
RECT
 10
191.5749
 20
9.2370
 30
0.0000
 41
0.5500
 42
1.2000
 43
1.0000
 50
270.0000
  0
INSERT
  8
31
  2
RECT
 10
191.5749
 20
8.2870
 30
0.0000
 41
0.5500
 42
1.2000
 43
1.0000
 50
270.0000
  0
INSERT
  8
31
  2
RECT
 10
191.5749
 20
7.3370
 30
0.0000
 41
0.5500
 42
1.2000
 43
1.0000
 50
270.0000
  0
INSERT
  8
31
  2
RECT
 10
194.1751
 20
7.3370
 30
0.0000
 41
0.5500
 42
1.2000
 43
1.0000
 50
270.0000
  0
INSERT
  8
31
  2
RECT
 10
194.1751
 20
9.2370
 30
0.0000
 41
0.5500
 42
1.2000
 43
1.0000
 50
270.0000
  0
ENDSEC
  0
EOF
